# xmcd
#
# Track frame offsets: 
#        183
#        10223
#        23425
#        36235
#        46363
#        57900
#        71568
#        82290
#        92703
#        107065
#        121478
#        132100
#        146708
#        156183
#        168688
#        181015
#        190863
#        202425
#        219333
#        229643
#        244088
#        254825
#        268953
#        283968
#        303620
#
# Disc length: 4183 seconds
#
# Revision: 5
# Processed by: cddbd v1.5.2PL0 Copyright (c) Steve Scherf et al.
# Submitted via: ExactAudioCopy v1.3
#
DISCID=80105519
DTITLE=Various Artist - Kings Of Cajun Vol.3 (25 More Stomps From The
DTITLE=Swamps)
DYEAR=1994
DGENRE=Cajun
TTITLE0=Joe Bonsall and The Orange Playboys - I Went To The Dance Last N
TTITLE0=ight (1968)
TTITLE1=Nathan Abshire - Pine Grove Blues (1967)
TTITLE2=Balfa Brothers - Les Flammes d'Enfer (1974)
TTITLE3=Badeaux and The Louisiana Aces featuring DL Menard - The Back Do
TTITLE3=or (1962)
TTITLE4=Phil Menard and The LA Travellers - Family Waltz (1972)
TTITLE5=Paul Daigle, Mike Doucet and Robert Elkin - Hackberry Hop (1985)
TTITLE6=Balfa Brothers - La Danse de Mardi Gras (1974)
TTITLE7=Sidney Brown - Font Kee-Lot Two Step (1960)
TTITLE8=Paul Daigle and Cajun Gold - Valse de Coeur Casser (1986)
TTITLE9=Boozoo Chavis - Paper In My Shoe (1986)
TTITLE10=Nathan Abshire - Lemonade Song (1974)
TTITLE11=Austin Pitre and The Evangeline Playboys - Grand Mamou Blues (1
TTITLE11=961)
TTITLE12=Vin Bruce - Si Tu M'Aimes (1961)
TTITLE13=Nolan Cormier and The LA Aces - Hee Haw Breakdown (1971)
TTITLE14=Beausoleil - Les Veuves de la Coulee (1986)
TTITLE15=Lesa Cormier and The Sundown Playboys - Back Home Again In Loui
TTITLE15=siana (1973)
TTITLE16=Belton Richard - Jolie Blonde (1972)
TTITLE17=Cankton Express - Bosco Stomp (1988)
TTITLE18=Badeaux and The Louisiana Aces featuring DL Menard - I Can't Fo
TTITLE18=rget You (1964)
TTITLE19=Lawtell Playboys - Baby Please Don't Go (1977)
TTITLE20=Camey Doucet - Hold My False Teeth (And I'll Show You How To 
TTITLE20=Dance) (1977)
TTITLE21=Balfa Brothers - J'ai Passe Devant Ta Porte (1974)
TTITLE22=Jambalaya Cajun Band - La Point aux Pins (1990)
TTITLE23=Clifton Chenier - Old Time Waltz (1984)
TTITLE24=Joe Bonsall and The Orange Playboys - Step It Fast (1964)
EXTD=Music Collection International (P) 1994 MCCD 171
EXTT0=
EXTT1=
EXTT2=
EXTT3=
EXTT4=
EXTT5=
EXTT6=
EXTT7=
EXTT8=
EXTT9=
EXTT10=
EXTT11=
EXTT12=
EXTT13=
EXTT14=
EXTT15=
EXTT16=
EXTT17=
EXTT18=
EXTT19=
EXTT20=
EXTT21=
EXTT22=
EXTT23=
EXTT24=
PLAYORDER=
